<svg xmlns="http://www.w3.org/2000/svg" xmlns:xlink="http://www.w3.org/1999/xlink" width="71" height="78" viewBox="0 0 71 78">
  <defs>
    <polygon id="isi-group-logo-a" points="0 78 70.904 78 70.904 .007 0 .007"/>
  </defs>
  <g fill="none" fill-rule="evenodd">
    <polygon fill="#233E94" points="0 78 3 78 3 67 0 67"/>
    <path fill="#233E94" d="M4.49321754,76.2902307 L6.08710934,74.3887046 C7.10555197,75.1993931 8.24201754,75.6269401 9.43749459,75.6269401 C10.2047602,75.6269401 10.6183061,75.3616703 10.6183061,74.9193604 L10.6183061,74.8898343 C10.6183061,74.4622873 10.2789028,74.2265437 8.87659459,73.9022218 C6.67734049,73.4010921 4.9803241,72.7819744 4.9803241,70.6595839 L4.9803241,70.6299416 C4.9803241,68.7136525 6.50065525,67.3281353 8.97995197,67.3281353 C10.7362126,67.3281353 12.1090733,67.7998551 13.2306405,68.6988894 L11.7990011,70.7182873 C10.854352,70.055113 9.82112738,69.701265 8.90615852,69.701265 C8.21245361,69.701265 7.87293393,69.9960608 7.87293393,70.3645556 L7.87293393,70.3940817 C7.87293393,70.8658015 8.22723557,71.0721353 9.65887492,71.396341 C12.0351634,71.9123499 13.5107995,72.6789818 13.5107995,74.6098015 L13.5107995,74.6393276 C13.5107995,76.7471875 11.843347,77.9999535 9.33437,77.9999535 C7.50408311,77.9999535 5.76237164,77.4251249 4.49321754,76.2902307"/>
    <mask id="isi-group-logo-b" fill="#fff">
      <use xlink:href="#isi-group-logo-a"/>
    </mask>
    <polygon fill="#233E94" points="15.126 77.823 18.004 77.823 18.004 67.505 15.126 67.505" mask="url(#isi-group-logo-b)"/>
    <path fill="#233E94" d="M24.873558 77.9999535C21.6262974 77.9999535 19.6194416 75.6415869 19.6194416 72.6789818 19.6194416 69.8340161 21.70044 67.3281353 24.7996482 67.3281353 26.5413597 67.3281353 27.6189302 67.8293812 28.6518056 68.6988894L27.8990892 69.5835094C27.1020269 68.8906927 26.2165056 68.4042098 24.7556515 68.4042098 22.4677056 68.4042098 20.8294679 70.3351458 20.8294679 72.6494557 20.8294679 75.1256942 22.4085777 76.9534051 24.9179039 76.9534051 26.098599 76.9534051 27.1907187 76.4964483 27.8990892 75.9216197L27.8990892 73.3569192 24.7556515 73.3569192 24.7556515 72.3103708 29.0206564 72.3103708 29.0206564 76.4229818C28.0616908 77.2778432 26.6151531 77.9999535 24.873558 77.9999535M34.9902316 68.5809827L31.8020989 68.5809827 31.8020989 72.7672927 34.9752169 72.7672927C36.525112 72.7672927 37.6317808 71.9713672 37.6317808 70.6299067 37.6317808 69.3476146 36.6580333 68.5809827 34.9902316 68.5809827zM37.7498038 77.8232271L34.7538366 73.8138411 31.8020989 73.8138411 31.8020989 77.8232271 30.6361857 77.8232271 30.6361857 67.5051407 35.0785743 67.5051407C37.3517382 67.5051407 38.8125923 68.7284969 38.8125923 70.5856176 38.8125923 72.3103359 37.6317808 73.3125952 36.0084415 73.6075073L39.1817923 77.8232271 37.7498038 77.8232271zM46.051473 68.4042331C43.6900828 68.4042331 42.0078484 70.2908799 42.0078484 72.649479 42.0078484 75.0078456 43.7196467 76.9241347 46.0810369 76.9241347 48.4425434 76.9241347 50.1254762 75.0373717 50.1254762 72.6788888 50.1254762 70.320406 48.4129795 68.4042331 46.051473 68.4042331M46.051473 77.9999768C42.9080352 77.9999768 40.7971238 75.5383851 40.7971238 72.6788888 40.7971238 69.8192763 42.93725 67.3281586 46.0810369 67.3281586 49.2249402 67.3281586 51.3353861 69.7897502 51.3353861 72.649479 51.3353861 75.5089753 49.1953762 77.9999768 46.051473 77.9999768M61.5552192 73.415797C61.5552192 76.4229237 59.8286389 77.9854811 57.2458684 77.9854811 54.6921962 77.9854811 52.9508339 76.4229237 52.9508339 73.5043753L52.9508339 67.5051174 54.1168634 67.5051174 54.1168634 73.4305601C54.1168634 75.6562918 55.2975585 76.9094066 57.2750831 76.9094066 59.1792798 76.9094066 60.3893061 75.7596331 60.3893061 73.5043753L60.3893061 67.5051174 61.5552192 67.5051174 61.5552192 73.415797zM66.9491008 68.5809827L64.33665 68.5809827 64.33665 73.1211407 66.8898566 73.1211407C68.6017713 73.1211407 69.7236877 72.2072271 69.7236877 70.8362405 69.7236877 69.3476146 68.6167861 68.5809827 66.9491008 68.5809827M66.8452779 74.1824522L64.33665 74.1824522 64.33665 77.8232271 63.1707369 77.8232271 63.1707369 67.5051407 67.0374434 67.5051407C69.3692697 67.5051407 70.9040336 68.7432599 70.9040336 70.7920677 70.9040336 73.0326787 69.044532 74.1824522 66.8452779 74.1824522M48.703288 43.9136745L35.4493339 52.2823422 22.1959618 43.9136745 11.7437143 50.513451C17.4015995 57.2971261 25.9209011 61.6167684 35.452011 61.6167684 44.9826552 61.6167684 53.5014913 57.2977073 59.1593766 50.5147297L48.703288 43.9136745z" mask="url(#isi-group-logo-b)"/>
    <path fill="#233E94" d="M19.6465148,32.1609925 L24.7455951,32.1609925 L24.7455951,12.8223398 L19.6465148,12.8223398 L19.6465148,32.1609925 Z M35.2570869,24.7337884 C31.3602344,23.8255708 28.3533262,22.7033472 28.3533262,18.8561222 L28.3533262,18.8025335 C28.3533262,15.3292668 31.0471361,12.8179225 35.4404066,12.8179225 C38.5520689,12.8179225 40.9845754,13.6727839 42.9719934,15.3025306 L40.4353148,18.9628346 C38.761577,17.7606349 36.9307082,17.1194307 35.3094639,17.1194307 C34.0803492,17.1194307 33.4785951,17.6535738 33.4785951,18.3215142 L33.4785951,18.3751028 C33.4785951,19.2299642 34.1065377,19.6040387 36.6432164,20.1916542 C40.8536328,21.1269568 43.4684115,22.51631 43.4684115,26.0160805 L43.4684115,26.0696692 C43.4684115,29.890158 40.5137639,32.1611088 36.0682328,32.1611088 C32.8250459,32.1611088 29.7389902,31.1190939 27.4902689,29.0619165 L30.3144393,25.615386 C32.1191197,27.0848316 34.1327262,27.8598331 36.2509705,27.8598331 C37.6104459,27.8598331 38.3431426,27.3788137 38.3431426,26.5773085 L38.3431426,26.5238361 C38.3431426,25.7489508 37.7419705,25.3214039 35.2570869,24.7337884 Z M46.1510475,32.1611088 L51.2501279,32.1611088 L51.2501279,12.8179225 L46.1510475,12.8179225 L46.1510475,32.1611088 Z M8.9423918,46.46138 L22.1959967,38.0925961 L35.4493689,46.46138 L48.703323,38.0925961 L61.9592557,46.46138 L62.050741,46.4037228 C64.7449,41.8292727 66.2963082,36.5029538 66.2963082,30.8119762 C66.2963082,13.7990253 52.487041,0.0072071535 35.4520459,0.0072071535 C18.4172836,0.0072071535 4.60778361,13.7990253 4.60778361,30.8119762 C4.60778361,36.5038838 6.15989016,41.8311326 8.85474754,46.4061639 L8.9423918,46.46138 Z" mask="url(#isi-group-logo-b)"/>
  </g>
</svg>
